<svg xmlns="http://www.w3.org/2000/svg" width="36" height="36" viewBox="0 0 36 36">
    <g fill="none" fill-rule="nonzero" opacity=".7">
        <path fill="#596770" d="M33.007 2.69C32.687 1.183 31.37 0 29.734 0H12.732a3.362 3.362 0 0 0-3.273 2.65H2.674A2.73 2.73 0 0 0 0 5.382v25.155a2.668 2.668 0 0 0 2.674 2.69H9.42C9.7 34.818 11.055 36 12.692 36h17.042a3.34 3.34 0 0 0 3.193-2.365c1.676-.163 2.993-1.59 2.993-3.343V5.993a3.353 3.353 0 0 0-2.913-3.302z"/>
        <path fill="#D5D9DB" d="M12.732 1.182h17.042c.998 0 1.796.653 2.075 1.55a3.37 3.37 0 0 0-2.514 2.772H12.732a2.16 2.16 0 0 1 0-4.322z"/>
        <path fill="#D5D9DB" d="M9.459 32.045H2.674a1.524 1.524 0 0 1-1.517-1.508V5.382c0-.857.679-1.509 1.517-1.509H9.42c.24 1.631 1.636 2.854 3.273 2.854h16.523v22.627H12.732c-1.637-.04-2.994 1.142-3.273 2.691z"/>
        <path fill="#D5D9DB" d="M29.734 34.858H12.732a2.16 2.16 0 0 1 0-4.321h16.563c.08 1.468 1.117 2.65 2.474 3.017-.359.734-1.117 1.304-2.035 1.304zM34.763 30.292a2.16 2.16 0 0 1-2.155 2.161 2.16 2.16 0 0 1-2.156-2.16v-24.3a2.16 2.16 0 0 1 2.156-2.16 2.16 2.16 0 0 1 2.155 2.16v24.3z"/>
    </g>
</svg>
